<?xml version="1.0" encoding="iso-8859-1"?>
<!-- Generator: Adobe Illustrator 16.0.0, SVG Export Plug-In . SVG Version: 6.00 Build 0)  -->
<!DOCTYPE svg PUBLIC "-//W3C//DTD SVG 1.1//EN" "http://www.w3.org/Graphics/SVG/1.1/DTD/svg11.dtd">
<svg version="1.1" id="Capa_1" xmlns="http://www.w3.org/2000/svg" xmlns:xlink="http://www.w3.org/1999/xlink" x="0px" y="0px"
	 width="176.083px" height="176.084px" viewBox="0 0 176.083 176.084" style="enable-background:new 0 0 176.083 176.084;"
	 xml:space="preserve">
<g>
	<g>
		<path d="M34.197,142.311h28.599V33.647H34.197V142.311z M38.78,40.518h19.426v2.78H38.78V40.518z M38.78,47.19h19.426v2.78H38.78
			V47.19z M38.78,132.669h19.426v2.781H38.78V132.669z"/>
		<path d="M0,142.437h28.595V33.776H0V142.437z M4.578,40.646h19.434v2.78H4.578V40.646z M4.578,47.319h19.434v2.78H4.578V47.319z
			 M4.578,132.8h19.434v2.78H4.578V132.8z"/>
		<path d="M68.395,33.647v108.663h28.602V48.217V33.647H68.395z M92.405,135.45H72.972v-2.781h19.433V135.45z M92.405,49.971H72.972
			v-2.78h19.433V49.971z M92.405,43.298H72.972v-2.78h19.433V43.298z"/>
		<path d="M121.752,33.91L96.997,48.217l54.32,94.094l24.767-14.304L121.752,33.91z M104.389,51.858l16.826-9.716l1.396,2.427
			l-16.831,9.71L104.389,51.858z M124.554,47.918l1.392,2.416l-16.823,9.71 M150.468,131.668l16.832-9.712l1.391,2.419
			l-16.832,9.706L150.468,131.668z"/>
	</g>
</g>
<g>
</g>
<g>
</g>
<g>
</g>
<g>
</g>
<g>
</g>
<g>
</g>
<g>
</g>
<g>
</g>
<g>
</g>
<g>
</g>
<g>
</g>
<g>
</g>
<g>
</g>
<g>
</g>
<g>
</g>
</svg>
