<?xml version="1.0" encoding="iso-8859-1"?>
<!-- Generator: Adobe Illustrator 19.0.0, SVG Export Plug-In . SVG Version: 6.00 Build 0)  -->
<svg version="1.1" id="Layer_1" xmlns="http://www.w3.org/2000/svg" xmlns:xlink="http://www.w3.org/1999/xlink" x="0px" y="0px"
	 viewBox="0 0 512 512" style="enable-background:new 0 0 512 512;" xml:space="preserve">
<g transform="translate(1 1)">
	<path style="fill:#FFDD09;" d="M69.621,352.103v105.931c0-24.717,17.655-44.138,38.841-44.138h331.917V36.959
		c0-15.89-11.476-29.131-25.6-29.131H91.69c-12.359,0-22.069,11.476-22.069,25.6v89.159V352.103z"/>
	<path style="fill:#FCC309;" d="M428.021,502.172H113.759c-24.717,0-44.138-19.421-44.138-44.138l0,0
		c0-24.717,19.421-44.138,44.138-44.138h326.621v75.917C440.379,496.876,435.083,502.172,428.021,502.172"/>
	<path style="fill:#FD9808;" d="M440.379,413.897v75.917c0,7.062-5.297,12.359-12.359,12.359h26.483
		c7.062,0,12.359-5.297,12.359-12.359v-75.917H440.379z"/>
	<g>
		<path style="fill:#FFFFFF;" d="M69.621,458.034c0-24.717,19.421-44.138,44.138-44.138H87.276
			c-24.717,0-44.138,19.421-44.138,44.138s19.421,44.138,44.138,44.138h26.483C89.041,502.172,69.621,482.752,69.621,458.034"/>
		<path style="fill:#FFFFFF;" d="M69.621,352.103V122.586V33.428c0-14.124,9.71-25.6,22.069-25.6H68.738
			c-14.124,0-25.6,11.476-25.6,25.6v89.159v229.517v105.931c0-17.655,10.593-33.545,26.483-40.607V352.103z"/>
	</g>
	<path style="fill:#FD9808;" d="M437.731,7.828h-22.952c14.124,0,25.6,13.241,25.6,29.131v376.938h26.483V36.959
		C466.862,21.069,453.621,7.828,437.731,7.828"/>
	<path style="fill:#33A9F8;" d="M322.972,157.897H187.028c-6.179,0-11.476-5.297-11.476-11.476V81.097
		c0-6.179,5.297-11.476,11.476-11.476H322.09c7.062,0,12.359,5.297,12.359,11.476v64.441
		C334.448,152.6,329.152,157.897,322.972,157.897"/>
	<path style="fill:#54C9FD;" d="M298.255,157.897H185.262c-5.297,0-9.71-5.297-9.71-11.476V81.097c0-6.179,4.414-11.476,9.71-11.476
		h112.993c5.297,0,9.71,5.297,9.71,11.476v64.441C307.966,152.6,303.552,157.897,298.255,157.897"/>
	<path d="M454.503,511H87.276c-29.131,0-52.966-23.835-52.966-52.966c0-29.131,23.834-52.966,52.966-52.966H475.69v84.745
		C475.69,501.29,465.979,511,454.503,511z M87.276,422.724c-19.421,0-35.31,15.89-35.31,35.31c0,19.421,15.89,35.31,35.31,35.31
		h367.228c1.766,0,3.531-1.766,3.531-3.531v-67.09H87.276z"/>
	<path d="M122.586,466.862H78.448c-5.297,0-8.828-3.531-8.828-8.828s3.531-8.828,8.828-8.828h44.138
		c5.297,0,8.828,3.531,8.828,8.828S127.883,466.862,122.586,466.862z"/>
	<path d="M378.586,466.862h-220.69c-5.297,0-8.828-3.531-8.828-8.828s3.531-8.828,8.828-8.828h220.69
		c5.297,0,8.828,3.531,8.828,8.828S383.883,466.862,378.586,466.862z"/>
	<path d="M51.966,458.034H34.31V33.428C34.31,14.89,50.2-1,68.738-1h368.993c21.186,0,37.959,16.772,37.959,37.959v385.766H87.276
		C67.855,422.724,51.966,438.614,51.966,458.034z M68.738,16.655c-8.828,0-16.772,7.945-16.772,16.772V418.31
		c9.71-8.828,22.069-13.241,35.31-13.241h370.759V36.959c0-11.476-8.828-20.303-20.303-20.303H68.738z"/>
	<path d="M322.972,166.724H187.028c-11.476,0-20.303-8.828-20.303-20.303V81.097c0-11.476,8.828-20.303,20.303-20.303H322.09
		c12.359,0,21.186,8.828,21.186,20.303v64.441C343.276,157.897,334.448,166.724,322.972,166.724z M187.028,78.448
		c-1.766,0-2.648,1.766-2.648,2.648v64.441c0,1.766,0.883,2.648,2.648,2.648H322.09c1.766,0,2.648-0.883,2.648-2.648V81.097
		c0.883-0.883,0-2.648-1.766-2.648H187.028z"/>
	<path d="M307.966,325.621H202.034c-5.297,0-8.828-3.531-8.828-8.828s3.531-8.828,8.828-8.828h105.931
		c5.297,0,8.828,3.531,8.828,8.828S313.262,325.621,307.966,325.621z"/>
	<path d="M343.276,360.931H166.724c-5.297,0-8.828-3.531-8.828-8.828s3.531-8.828,8.828-8.828h176.552
		c5.297,0,8.828,3.531,8.828,8.828S348.572,360.931,343.276,360.931z"/>
	<rect x="413.897" y="7.828" width="17.655" height="494.345"/>
	<rect x="87.276" y="7.828" width="17.655" height="414.897"/>
</g>
<g>
</g>
<g>
</g>
<g>
</g>
<g>
</g>
<g>
</g>
<g>
</g>
<g>
</g>
<g>
</g>
<g>
</g>
<g>
</g>
<g>
</g>
<g>
</g>
<g>
</g>
<g>
</g>
<g>
</g>
</svg>
