<svg xmlns="http://www.w3.org/2000/svg"  viewBox="0 0 100 100" width="30px" height="30px"><path fill="#ee3e54" d="M13 27A2 2 0 1 0 13 31A2 2 0 1 0 13 27Z"/><path fill="#f1bc19" d="M77 12A1 1 0 1 0 77 14A1 1 0 1 0 77 12Z"/><path fill="#f9dbd2" d="M50 13A37 37 0 1 0 50 87A37 37 0 1 0 50 13Z"/><path fill="#f1bc19" d="M83 11A4 4 0 1 0 83 19A4 4 0 1 0 83 11Z"/><path fill="#ee3e54" d="M87 22A2 2 0 1 0 87 26A2 2 0 1 0 87 22Z"/><path fill="#fbcd59" d="M81 74A2 2 0 1 0 81 78 2 2 0 1 0 81 74zM15 59A4 4 0 1 0 15 67 4 4 0 1 0 15 59z"/><path fill="#ee3e54" d="M25 85A2 2 0 1 0 25 89A2 2 0 1 0 25 85Z"/><path fill="#fff" d="M18.5 51A2.5 2.5 0 1 0 18.5 56A2.5 2.5 0 1 0 18.5 51Z"/><path fill="#f1bc19" d="M21 66A1 1 0 1 0 21 68A1 1 0 1 0 21 66Z"/><path fill="#fff" d="M80 33A1 1 0 1 0 80 35A1 1 0 1 0 80 33Z"/><g><path fill="#8a8ac0" d="M61,29c3.308,0,6,2.692,6,6v4.5l-2.6,2.7L64,42.5V43v23c0,3.86-3.14,7-7,7H43c-3.86,0-7-3.14-7-7 V43v-0.5l-0.4-0.3L33,39.5V35c0-3.308,2.692-6,6-6H61"/><path fill="#a2a2cc" d="M67,36v-1c0-3.308-2.692-6-6-6H39c-3.308,0-6,2.692-6,6v1H67z"/><path fill="#472b29" d="M61,29.4c3.088,0,5.6,2.512,5.6,5.6v4.32l-0.008,0.009l-2.6,2.7L63.6,42.436V43v23 c0,3.639-2.961,6.6-6.6,6.6H43c-3.639,0-6.6-2.961-6.6-6.6V43v-0.564l-0.392-0.407l-2.6-2.7L33.4,39.32V35 c0-3.088,2.512-5.6,5.6-5.6H61 M61,28H39c-3.866,0-7,3.134-7,7v4.5c0,0.315,0.148,0.611,0.4,0.8L35,43v23c0,4.418,3.582,8,8,8h14 c4.418,0,8-3.582,8-8V43l2.6-2.7c0.252-0.189,0.4-0.485,0.4-0.8V35C68,31.134,64.866,28,61,28L61,28z"/><path fill="#472b29" d="M33 35.6H67V37H33zM59.75 33.5H33c-.138 0-.25-.112-.25-.25S32.862 33 33 33h26.75c.138 0 .25.112.25.25S59.888 33.5 59.75 33.5zM63.75 33.5h-1.5c-.138 0-.25-.112-.25-.25S62.112 33 62.25 33h1.5c.138 0 .25.112.25.25S63.888 33.5 63.75 33.5zM57 27c0-1.657-1.343-3-3-3h-8c-1.657 0-3 1.343-3 3v1.625h1.4V27c0-.882.718-1.6 1.6-1.6h8c.882 0 1.6.718 1.6 1.6v1.625H57V27zM33 39H67V39.5H33zM37 70H63V70.75H37zM36 53.6h-1c-.882 0-1.6-.718-1.6-1.6v-4c0-.882.718-1.6 1.6-1.6h1V45h-1c-1.657 0-3 1.343-3 3v4c0 1.657 1.343 3 3 3h1V53.6zM64 46.4h1c.882 0 1.6.718 1.6 1.6v4c0 .882-.718 1.6-1.6 1.6h-1V55h1c1.657 0 3-1.343 3-3v-4c0-1.657-1.343-3-3-3h-1V46.4z"/><g><path fill="#6869ad" d="M60.625,44c0-0.897-0.728-1.625-1.625-1.625S57.375,43.103,57.375,44c0,0.777,0,20.222,0,21 c0,0.897,0.728,1.625,1.625,1.625s1.625-0.728,1.625-1.625C60.625,64.222,60.625,44.777,60.625,44z"/><path fill="#472b29" d="M59,67c-1.103,0-2-0.897-2-2V44c0-1.103,0.897-2,2-2s2,0.897,2,2v21C61,66.103,60.103,67,59,67z M59,42.75c-0.689,0-1.25,0.561-1.25,1.25v21c0,0.689,0.561,1.25,1.25,1.25s1.25-0.561,1.25-1.25V44 C60.25,43.311,59.689,42.75,59,42.75z"/></g><g><path fill="#6869ad" d="M54.625,44c0-0.897-0.728-1.625-1.625-1.625S51.375,43.103,51.375,44c0,0.777,0,20.222,0,21 c0,0.897,0.728,1.625,1.625,1.625s1.625-0.728,1.625-1.625C54.625,64.222,54.625,44.777,54.625,44z"/><path fill="#472b29" d="M53,67c-1.103,0-2-0.897-2-2V44c0-1.103,0.897-2,2-2s2,0.897,2,2v21C55,66.103,54.103,67,53,67z M53,42.75c-0.689,0-1.25,0.561-1.25,1.25v21c0,0.689,0.561,1.25,1.25,1.25s1.25-0.561,1.25-1.25V44 C54.25,43.311,53.689,42.75,53,42.75z"/></g><g><path fill="#6869ad" d="M48.625,44c0-0.897-0.728-1.625-1.625-1.625S45.375,43.103,45.375,44c0,0.777,0,20.222,0,21 c0,0.897,0.728,1.625,1.625,1.625s1.625-0.728,1.625-1.625C48.625,64.222,48.625,44.777,48.625,44z"/><path fill="#472b29" d="M47,67c-1.103,0-2-0.897-2-2V44c0-1.103,0.897-2,2-2s2,0.897,2,2v21C49,66.103,48.103,67,47,67z M47,42.75c-0.689,0-1.25,0.561-1.25,1.25v21c0,0.689,0.561,1.25,1.25,1.25s1.25-0.561,1.25-1.25V44 C48.25,43.311,47.689,42.75,47,42.75z"/></g><g><path fill="#6869ad" d="M42.625,44c0-0.897-0.728-1.625-1.625-1.625S39.375,43.103,39.375,44c0,0.777,0,20.222,0,21 c0,0.897,0.728,1.625,1.625,1.625s1.625-0.728,1.625-1.625C42.625,64.222,42.625,44.777,42.625,44z"/><path fill="#472b29" d="M41,67c-1.103,0-2-0.897-2-2v-1.625C39,63.168,39.168,63,39.375,63s0.375,0.168,0.375,0.375V65 c0,0.689,0.561,1.25,1.25,1.25s1.25-0.561,1.25-1.25V44c0-0.689-0.561-1.25-1.25-1.25s-1.25,0.561-1.25,1.25v11.625 c0,0.207-0.168,0.375-0.375,0.375S39,55.832,39,55.625V44c0-1.103,0.897-2,2-2s2,0.897,2,2v21C43,66.103,42.103,67,41,67z"/><path fill="#472b29" d="M39.375,59C39.168,59,39,58.832,39,58.625v-1.25C39,57.168,39.168,57,39.375,57 s0.375,0.168,0.375,0.375v1.25C39.75,58.832,39.582,59,39.375,59z"/></g></g></svg>